# xmcd
#
# Track frame offsets:
#	150
#	16773
#	33386
#
# Disc length: 645 seconds
#
# Revision: 0
# Processed by: cddbd v1.5.2PL0 Copyright (c) Steve Scherf et al.
# Submitted via: audiograbber 1.83.01
#
DISCID=16028303
DTITLE=The Feeling - CD Single
DYEAR=2006
DGENRE=
TTITLE0=Fill My Little World
TTITLE1=Not Be Turned
TTITLE2=One Thing That I Want
EXTD=
EXTT0=
EXTT1=
EXTT2=
PLAYORDER=
